<svg width="67" height="33" viewBox="0 0 67 33" fill="none" xmlns="http://www.w3.org/2000/svg">
<path d="M10.629 32.0304C8.22031 32.0304 6.19922 31.5598 4.56574 30.6184C2.93226 29.6771 1.56179 28.2513 0.454346 26.3409L5.47938 22.5618C6.03311 23.6138 6.66989 24.3891 7.38973 24.8874C8.13725 25.3858 8.88478 25.6349 9.63231 25.6349C10.8505 25.6349 11.7641 25.275 12.3732 24.5552C13.01 23.8076 13.3284 22.4233 13.3284 20.4023V0.509766H20.7621V20.9837C20.7621 23.0048 20.4022 24.8597 19.6824 26.5486C18.9625 28.2097 17.8551 29.5387 16.36 30.5354C14.865 31.5321 12.9546 32.0304 10.629 32.0304Z" fill="#F6B990"/>
<path d="M27.7621 31.74V0.800781H35.1958V31.74H27.7621Z" fill="#F6B990"/>
<path d="M42.1958 31.74V0.800781H49.7541L57.437 15.6267L60.4686 22.479H60.6763C60.4825 20.8455 60.261 19.0044 60.0118 16.9556C59.7903 14.8792 59.6796 12.9135 59.6796 11.0585V0.800781H66.7395V31.74H59.1812L51.5399 16.8311L48.5082 10.0618H48.3006C48.4667 11.7783 48.6605 13.6472 48.882 15.6682C49.1312 17.6616 49.2558 19.5997 49.2558 21.4823V31.74H42.1958Z" fill="#F6B990"/>
</svg>
