<svg width="117" height="34" viewBox="0 0 117 34" fill="none" xmlns="http://www.w3.org/2000/svg">
<path d="M0.251465 32.4695V1.53027H11.0491C13.1809 1.53027 15.1189 1.76561 16.8631 2.23627C18.6074 2.67925 19.9917 3.45446 21.0161 4.56191C22.0405 5.66935 22.5526 7.21978 22.5526 9.21318C22.5526 10.1268 22.3865 11.0405 22.0543 11.9541C21.7221 12.8401 21.2514 13.643 20.6423 14.3628C20.0609 15.055 19.3549 15.5671 18.5243 15.8994V16.0655C20.0747 16.4808 21.376 17.2837 22.4281 18.4742C23.4801 19.6647 24.0062 21.2843 24.0062 23.3331C24.0062 25.4373 23.4663 27.1676 22.3865 28.5243C21.3068 29.8532 19.8532 30.8499 18.026 31.5144C16.1987 32.1511 14.1637 32.4695 11.9212 32.4695H0.251465ZM7.68519 13.8229H10.7584C12.3365 13.8229 13.4854 13.5045 14.2053 12.8677C14.9528 12.231 15.3266 11.3865 15.3266 10.3345C15.3266 9.22702 14.9528 8.43797 14.2053 7.9673C13.4578 7.46895 12.3088 7.21978 10.7584 7.21978H7.68519V13.8229ZM7.68519 26.78H11.3813C13.1809 26.78 14.5237 26.4616 15.4096 25.8249C16.3233 25.1604 16.7801 24.1637 16.7801 22.8348C16.7801 21.5612 16.3233 20.6476 15.4096 20.0938C14.5237 19.5401 13.1809 19.2632 11.3813 19.2632H7.68519V26.78Z" fill="#E77D35"/>
<path d="M29.0062 32.4695V1.53027H48.608V7.71813H36.44V13.4492H46.7807V19.6785H36.44V26.2402H49.0648V32.4695H29.0062Z" fill="#E77D35"/>
<path d="M68.2263 33.0303C65.43 33.0303 62.9659 32.3935 60.8341 31.1199C58.7022 29.8187 57.0411 27.9637 55.8506 25.555C54.6601 23.1186 54.0648 20.2116 54.0648 16.8339C54.0648 13.4562 54.6601 10.5907 55.8506 8.23734C57.0411 5.85633 58.7022 4.05673 60.8341 2.83854C62.9659 1.59266 65.43 0.969727 68.2263 0.969727C71.0503 0.969727 73.5143 1.59266 75.6185 2.83854C77.7503 4.08442 79.4115 5.88401 80.602 8.23734C81.7925 10.5907 82.3877 13.4562 82.3877 16.8339C82.3877 20.2116 81.7925 23.1186 80.602 25.555C79.4115 27.9637 77.7503 29.8187 75.6185 31.1199C73.5143 32.3935 71.0503 33.0303 68.2263 33.0303ZM68.2263 26.6348C69.5829 26.6348 70.7457 26.2333 71.7147 25.4304C72.7114 24.6275 73.4728 23.4924 73.9988 22.025C74.5526 20.5577 74.8294 18.8273 74.8294 16.8339C74.8294 14.8405 74.5526 13.1378 73.9988 11.7258C73.4728 10.2861 72.7114 9.19251 71.7147 8.44498C70.7457 7.69746 69.5829 7.3237 68.2263 7.3237C66.8697 7.3237 65.693 7.69746 64.6963 8.44498C63.7273 9.19251 62.9798 10.2861 62.4537 11.7258C61.9277 13.1378 61.6647 14.8405 61.6647 16.8339C61.6647 18.8273 61.9277 20.5577 62.4537 22.025C62.9798 23.4924 63.7273 24.6275 64.6963 25.4304C65.693 26.2333 66.8697 26.6348 68.2263 26.6348Z" fill="#E77D35"/>
<path d="M87.3877 32.4695V1.53027H95.4028L100.303 14.9027C100.608 15.7886 100.899 16.7161 101.175 17.6851C101.452 18.6265 101.729 19.5678 102.006 20.5091H102.214C102.518 19.5678 102.809 18.6265 103.086 17.6851C103.363 16.7161 103.639 15.7886 103.916 14.9027L108.651 1.53027H116.707V32.4695H109.938V21.8796C109.938 20.8552 109.993 19.7062 110.104 18.4327C110.215 17.1591 110.34 15.8855 110.478 14.612C110.644 13.3107 110.796 12.1618 110.935 11.1651H110.727L108.152 18.5572L103.999 29.8532H99.9295L95.7351 18.5572L93.2433 11.1651H93.0772C93.2156 12.1618 93.3541 13.3107 93.4925 14.612C93.6309 15.8855 93.7555 17.1591 93.8662 18.4327C93.977 19.7062 94.0324 20.8552 94.0324 21.8796V32.4695H87.3877Z" fill="#E77D35"/>
</svg>
